<svg xmlns="http://www.w3.org/2000/svg" viewBox="0 0 80 88" fill="none">
<title>Hoppi bunny</title>
<path d="M25 42C13 25 14 7 22 5c9-2 16 18 16 31M43 35C42 17 51 1 59 5c9 5 3 25-6 38" fill="#FDF9ED" stroke="#194F46" stroke-width="4" stroke-linecap="round"/>
<path d="M24 15c-1 6 2 14 5 19M55 14c-3 5-5 11-6 17" stroke="#F4B6AC" stroke-width="5" stroke-linecap="round"/>
<path d="M66 57c0 16-12 26-27 26S12 73 12 57c0-15 12-25 27-25s27 10 27 25Z" fill="#FDF9ED" stroke="#194F46" stroke-width="4"/>
<ellipse cx="24" cy="62" rx="6" ry="4" fill="#F4B6AC"/><ellipse cx="54" cy="62" rx="6" ry="4" fill="#F4B6AC"/>
<path d="M28 53v3m22-3v3" stroke="#194F46" stroke-width="4" stroke-linecap="round"/>
<path d="m36 61 3 3 3-3" fill="#194F46" stroke="#194F46" stroke-width="2" stroke-linejoin="round"/>
<path d="M33 68q3 4 6 0 3 4 6 0" stroke="#194F46" stroke-width="2" stroke-linecap="round"/>
<path d="m69 28 2-5 2 5 5 2-5 2-2 5-2-5-5-2Z" fill="#D9EDAB"/>
</svg>
